<?xml version="1.0" encoding="UTF-8"?>
<svg id="Layer_2" data-name="Layer 2" xmlns="http://www.w3.org/2000/svg" xmlns:xlink="http://www.w3.org/1999/xlink" viewBox="0 0 324.7 324.56">
  <defs>
    <style>
      .cls-1 {
        fill: #4285f4;
      }

      .cls-2 {
        fill: url(#radial-gradient);
      }

      .cls-3 {
        fill: #34a853;
      }

      .cls-4 {
        fill: #f2f2f2;
      }

      .cls-5 {
        fill: #4285f4;
      }
    </style>
    <radialGradient id="radial-gradient" cx="188.62" cy="133.61" fx="108.33" fy="-4.87" r="162.91" gradientUnits="userSpaceOnUse">
      <stop offset="0" stop-color="#84aff8"/>
      <stop offset=".49" stop-color="#82adf7"/>
      <stop offset=".66" stop-color="#7ba9f7"/>
      <stop offset=".79" stop-color="#6fa1f6"/>
      <stop offset=".89" stop-color="#5e97f5"/>
      <stop offset=".98" stop-color="#4889f4"/>
      <stop offset="1" stop-color="#4285f4"/>
    </radialGradient>
  </defs>
  <g id="Capa_1" data-name="Capa 1">
    <g>
      <circle class="cls-4" cx="162.42" cy="162.17" r="156.41"/>
      <g>
        <g>
          <path class="cls-1" d="M101.89,118.33h-25.58v13.77h23.56c1.73,0,3.03.39,3.88,1.17.85.78,1.28,1.8,1.28,3.08s-.42,2.31-1.26,3.12c-.84.8-2.14,1.2-3.9,1.2h-23.56v15.95h26.46c1.78,0,3.13.42,4.03,1.24.91.83,1.36,1.93,1.36,3.31s-.45,2.4-1.36,3.23c-.91.83-2.25,1.24-4.03,1.24h-30.86c-2.47,0-4.25-.55-5.33-1.64-1.08-1.1-1.63-2.87-1.63-5.32v-42.14c0-1.63.24-2.96.73-4,.48-1.03,1.24-1.78,2.28-2.26,1.03-.47,2.35-.71,3.96-.71h29.98c1.81,0,3.16.4,4.04,1.21.88.8,1.32,1.85,1.32,3.16s-.44,2.39-1.32,3.19c-.88.8-2.22,1.21-4.04,1.21Z"/>
          <path class="cls-1" d="M130.49,141.66h-3.98v18.01c0,2.37-.52,4.12-1.57,5.24-1.05,1.12-2.41,1.68-4.09,1.68-1.81,0-3.21-.59-4.21-1.76-.99-1.17-1.49-2.89-1.49-5.16v-43.14c0-2.45.55-4.22,1.64-5.32s2.87-1.64,5.32-1.64h18.47c2.55,0,4.73.11,6.54.33,1.81.22,3.44.66,4.9,1.32,1.76.74,3.31,1.8,4.66,3.17,1.35,1.38,2.38,2.98,3.08,4.8.7,1.82,1.05,3.75,1.05,5.79,0,4.18-1.18,7.52-3.54,10.02-2.36,2.5-5.93,4.27-10.73,5.32,2.01,1.07,3.94,2.65,5.77,4.74,1.84,2.09,3.47,4.32,4.91,6.67,1.44,2.36,2.56,4.49,3.37,6.39.8,1.9,1.21,3.21,1.21,3.92s-.24,1.47-.71,2.2c-.47.73-1.12,1.3-1.93,1.72s-1.76.63-2.83.63c-1.27,0-2.34-.3-3.21-.9-.87-.6-1.61-1.36-2.24-2.28s-1.47-2.27-2.54-4.05l-4.55-7.57c-1.63-2.78-3.09-4.89-4.38-6.35-1.29-1.45-2.59-2.45-3.92-2.98-1.33-.54-3-.8-5.01-.8ZM136.99,118.1h-10.48v15.41h10.17c2.73,0,5.02-.24,6.88-.71s3.28-1.27,4.26-2.41c.98-1.13,1.47-2.7,1.47-4.68,0-1.55-.4-2.93-1.19-4.11s-1.89-2.07-3.29-2.66c-1.33-.56-3.94-.84-7.84-.84Z"/>
          <path class="cls-1" d="M206.54,118.33h-25.58v13.77h23.56c1.73,0,3.03.39,3.88,1.17.85.78,1.28,1.8,1.28,3.08s-.42,2.31-1.26,3.12c-.84.8-2.14,1.2-3.9,1.2h-23.56v15.95h26.46c1.78,0,3.13.42,4.04,1.24.9.83,1.36,1.93,1.36,3.31s-.45,2.4-1.36,3.23c-.91.83-2.25,1.24-4.04,1.24h-30.86c-2.47,0-4.25-.55-5.33-1.64-1.08-1.1-1.62-2.87-1.62-5.32v-42.14c0-1.63.24-2.96.73-4,.48-1.03,1.24-1.78,2.28-2.26,1.03-.47,2.35-.71,3.96-.71h29.98c1.81,0,3.15.4,4.03,1.21s1.32,1.85,1.32,3.16-.44,2.39-1.32,3.19c-.88.8-2.22,1.21-4.03,1.21Z"/>
          <path class="cls-1" d="M262.48,148.81c0,3.39-.87,6.44-2.62,9.14-1.75,2.7-4.3,4.82-7.67,6.35-3.37,1.53-7.36,2.29-11.97,2.29-5.53,0-10.1-1.04-13.69-3.14-2.55-1.5-4.62-3.51-6.21-6.02-1.59-2.51-2.39-4.95-2.39-7.32,0-1.38.48-2.56,1.43-3.54s2.17-1.47,3.65-1.47c1.2,0,2.21.38,3.04,1.15.83.76,1.54,1.9,2.12,3.4.71,1.79,1.49,3.28,2.31,4.47s2,2.19,3.5,2.96c1.5.78,3.48,1.17,5.93,1.17,3.37,0,6.1-.78,8.2-2.35,2.1-1.57,3.15-3.52,3.15-5.87,0-1.86-.57-3.37-1.7-4.53-1.13-1.16-2.6-2.05-4.4-2.66-1.8-.61-4.2-1.26-7.21-1.95-4.03-.94-7.4-2.05-10.12-3.31-2.71-1.26-4.87-2.98-6.46-5.16s-2.39-4.89-2.39-8.13.84-5.83,2.52-8.22,4.12-4.24,7.3-5.53c3.19-1.29,6.93-1.93,11.24-1.93,3.44,0,6.42.43,8.93,1.28,2.51.85,4.6,1.99,6.25,3.4,1.66,1.42,2.87,2.9,3.63,4.46.76,1.55,1.15,3.07,1.15,4.55,0,1.35-.48,2.57-1.43,3.65-.96,1.08-2.15,1.63-3.58,1.63-1.3,0-2.29-.33-2.96-.98s-1.41-1.71-2.2-3.19c-1.02-2.12-2.24-3.77-3.67-4.95s-3.72-1.78-6.88-1.78c-2.93,0-5.3.64-7.09,1.93-1.8,1.29-2.7,2.84-2.7,4.65,0,1.12.31,2.09.92,2.91.61.82,1.45,1.52,2.52,2.1,1.07.59,2.15,1.05,3.25,1.38,1.1.33,2.91.82,5.43,1.45,3.16.74,6.02,1.56,8.59,2.45,2.56.89,4.74,1.98,6.54,3.25,1.8,1.28,3.2,2.89,4.21,4.84s1.51,4.34,1.51,7.17Z"/>
        </g>
        <g>
          <path class="cls-3" d="M93.46,204.3v-23.14c0-1.97.44-3.45,1.33-4.43.89-.99,2.05-1.48,3.5-1.48s2.71.49,3.59,1.48c.89.98,1.33,2.46,1.33,4.43v23.67c0,2.69.3,4.94.9,6.75.6,1.8,1.67,3.21,3.2,4.2,1.53,1,3.68,1.49,6.43,1.49,3.81,0,6.5-1.01,8.07-3.04,1.58-2.02,2.36-5.09,2.36-9.21v-23.86c0-1.99.44-3.47,1.31-4.45.88-.97,2.05-1.46,3.51-1.46s2.65.49,3.56,1.46,1.36,2.46,1.36,4.45v23.14c0,3.76-.37,6.9-1.1,9.42-.73,2.52-2.12,4.73-4.15,6.63-1.75,1.62-3.79,2.8-6.1,3.54-2.32.74-5.03,1.12-8.14,1.12-3.7,0-6.88-.4-9.55-1.2-2.67-.8-4.85-2.03-6.53-3.71-1.69-1.67-2.92-3.82-3.71-6.43-.79-2.62-1.18-5.74-1.18-9.37Z"/>
          <path class="cls-3" d="M155.49,181.09l18.74,28.36v-28.62c0-1.86.4-3.25,1.2-4.18.8-.93,1.88-1.4,3.23-1.4s2.51.47,3.32,1.4,1.21,2.33,1.21,4.18v37.84c0,4.22-1.75,6.33-5.25,6.33-.88,0-1.66-.13-2.36-.38-.7-.25-1.36-.65-1.97-1.2s-1.18-1.19-1.71-1.92c-.53-.73-1.05-1.48-1.58-2.25l-18.28-28.03v28.19c0,1.84-.43,3.23-1.28,4.17-.85.94-1.95,1.41-3.28,1.41s-2.48-.48-3.31-1.43c-.83-.95-1.25-2.33-1.25-4.15v-37.12c0-1.58.18-2.81.53-3.71.42-.99,1.1-1.79,2.07-2.41.96-.62,2-.94,3.12-.94.88,0,1.62.14,2.25.43.62.29,1.17.67,1.64,1.15.47.48.95,1.1,1.44,1.87.49.77,1,1.57,1.53,2.4Z"/>
          <path class="cls-3" d="M233.17,208.99c0,1.53-.38,3.19-1.13,4.97-.75,1.78-1.94,3.53-3.56,5.25s-3.69,3.11-6.2,4.18c-2.52,1.07-5.45,1.61-8.8,1.61-2.54,0-4.85-.24-6.93-.72-2.08-.48-3.97-1.23-5.66-2.25-1.7-1.02-3.25-2.36-4.68-4.02-1.27-1.51-2.35-3.2-3.25-5.07s-1.57-3.87-2.02-5.99c-.45-2.12-.67-4.38-.67-6.76,0-3.87.56-7.34,1.69-10.4s2.74-5.68,4.84-7.86c2.1-2.18,4.56-3.83,7.38-4.97,2.82-1.14,5.83-1.71,9.03-1.71,3.89,0,7.36.78,10.41,2.33,3.04,1.55,5.37,3.47,6.99,5.76,1.62,2.29,2.43,4.45,2.43,6.48,0,1.12-.39,2.1-1.18,2.95-.79.85-1.74,1.28-2.86,1.28-1.25,0-2.18-.29-2.81-.89-.62-.59-1.32-1.61-2.08-3.05-1.27-2.38-2.76-4.17-4.48-5.35s-3.83-1.77-6.35-1.77c-4,0-7.19,1.52-9.57,4.56-2.38,3.04-3.56,7.36-3.56,12.97,0,3.74.53,6.85,1.58,9.34,1.05,2.48,2.54,4.34,4.46,5.56,1.92,1.23,4.18,1.84,6.76,1.84,2.8,0,5.17-.69,7.11-2.08s3.4-3.43,4.38-6.12c.42-1.27.93-2.3,1.54-3.1.61-.8,1.6-1.2,2.95-1.2,1.16,0,2.16.41,2.99,1.21.83.81,1.25,1.82,1.25,3.02Z"/>
        </g>
      </g>
      <path class="cls-2" d="M276.71,46.81C230.46,1.07,159.53-12.75,99.51,12.48c-8.67,3.64-16.97,7.99-24.89,13.05-6.49,4.14-.48,14.53,6.06,10.36,52.9-33.76,122.02-31.49,172.27,6.14,46.03,34.47,68.63,94.62,56.74,150.89-11.8,55.79-55.15,101.13-110.48,115.08-55.78,14.07-115.55-5.68-152.45-49.66C5.42,209.1.99,136.48,35.08,82.16c2.25-3.58,4.64-7.04,7.18-10.41l9.82,10.06c2.95,3.03,8.08,1.72,9.22-2.35l11.07-39.45c1.14-4.07-2.55-7.85-6.65-6.81l-39.7,10.14c-4.1,1.05-5.53,6.14-2.57,9.16l10.39,10.64C14.21,88.87,2.34,119.8.31,152.32c-2.05,32.84,6.26,66.33,23.42,94.4,32.02,52.39,92.94,83.21,154.17,77.08,62.09-6.22,115.85-47.83,137.28-106.48,21.44-58.68,5.89-126.65-38.46-170.51Z"/>
      <path class="cls-5" d="M6.55,166.18c.18-.14.35-.29.54-.41,1.62-1.05,3.33-1.84,5.09-2.52.05-.18.09-.35.16-.53-.1-28.03,7.42-56.14,22.74-80.56,2.25-3.58,4.64-7.04,7.18-10.41l9.82,10.06c2.95,3.03,8.08,1.72,9.22-2.35l11.07-39.45c1.14-4.07-2.55-7.85-6.65-6.81l-39.7,10.14c-4.1,1.05-5.53,6.14-2.57,9.16l10.39,10.64C14.21,88.87,2.34,119.8.31,152.32c-.31,5.01-.38,10.04-.22,15.06,2.12-.54,4.28-.93,6.46-1.2Z"/>
    </g>
  </g>
</svg>